# xmcd
#
# Track frame offsets:
# 150
# 18340
# 34595
#
# Disc length: 909 seconds
#
# Revision: 0
# Processed by: cddbd v1.4PL0 Copyright (c) Steve Scherf et al.
# Submitted via: Axialis_AX_CDPlayer 2.6
#
DISCID=17038b03
DTITLE=Shania Twain - That don't impress me much
DYEAR=1900
DGENRE=
TTITLE0=That Don't Impress Me Much
TTITLE1=You're Still the One
TTITLE2=Shania Album Sampler
EXTD=
EXTT0=
EXTT1=
EXTT2=
PLAYORDER=
